ply
format ascii 1.0
comment Created by Blender 2.60 (sub 0) - www.blender.org, source file: 'etageSimple.blend'
element vertex 48
property float x
property float y
property float z
property float nx
property float ny
property float nz
element face 12
property list uchar uint vertex_indices
end_header
0.142857 -0.939889 0.550576 0.000000 -1.000000 0.000000
0.142857 -0.939888 1.449424 0.000000 -1.000000 0.000000
-0.142857 -0.939888 1.449424 0.000000 -1.000000 0.000000
-0.142857 -0.939889 0.550576 0.000000 -1.000000 0.000000
-0.142857 0.939693 1.449424 0.000000 1.000000 0.000000
0.142857 0.939693 1.449424 0.000000 1.000000 0.000000
0.142857 0.939694 0.550576 0.000000 1.000000 0.000000
-0.142857 0.939694 0.550576 0.000000 1.000000 0.000000
0.714285 -0.939888 0.550576 -0.000000 -1.000000 0.000000
0.714286 -0.939888 1.449424 -0.000000 -1.000000 0.000000
0.428571 -0.939888 1.449424 -0.000000 -1.000000 0.000000
0.428571 -0.939888 0.550576 -0.000000 -1.000000 0.000000
0.428571 0.939693 1.449424 -0.000000 1.000000 0.000000
0.714286 0.939693 1.449424 -0.000000 1.000000 0.000000
0.714285 0.939694 0.550576 -0.000000 1.000000 0.000000
0.428571 0.939694 0.550576 -0.000000 1.000000 0.000000
-0.428571 -0.939888 1.449424 0.000000 -1.000000 0.000000
-0.714286 -0.939888 1.449424 0.000000 -1.000000 0.000000
-0.714285 -0.939888 0.550576 0.000000 -1.000000 0.000000
-0.428571 -0.939888 0.550576 0.000000 -1.000000 0.000000
-0.714285 0.939694 0.550576 0.000000 1.000000 0.000000
-0.714286 0.939693 1.449424 0.000000 1.000000 0.000000
-0.428571 0.939693 1.449424 0.000000 1.000000 0.000000
-0.428571 0.939694 0.550576 0.000000 1.000000 0.000000
0.939784 -0.142955 0.550576 1.000000 0.000000 -0.000000
0.939784 0.142760 0.550576 1.000000 0.000000 -0.000000
0.939784 0.142760 1.449425 1.000000 0.000000 -0.000000
0.939784 -0.142955 1.449425 1.000000 0.000000 -0.000000
-0.939784 0.142760 1.449425 -1.000000 0.000000 -0.000000
-0.939784 0.142760 0.550576 -1.000000 0.000000 -0.000000
-0.939784 -0.142955 0.550576 -1.000000 0.000000 -0.000000
-0.939784 -0.142955 1.449425 -1.000000 0.000000 -0.000000
0.939784 -0.714383 1.449425 1.000000 -0.000000 -0.000000
0.939784 -0.714383 0.550576 1.000000 -0.000000 -0.000000
0.939784 -0.428669 0.550576 1.000000 -0.000000 -0.000000
0.939784 -0.428669 1.449425 1.000000 -0.000000 -0.000000
0.939784 0.428474 0.550576 1.000000 0.000000 -0.000000
0.939784 0.714189 0.550576 1.000000 0.000000 -0.000000
0.939784 0.714188 1.449425 1.000000 0.000000 -0.000000
0.939784 0.428474 1.449425 1.000000 0.000000 -0.000000
-0.939784 -0.428669 0.550576 -1.000000 -0.000000 -0.000000
-0.939784 -0.714383 0.550576 -1.000000 -0.000000 -0.000000
-0.939784 -0.714383 1.449425 -1.000000 -0.000000 -0.000000
-0.939784 -0.428669 1.449425 -1.000000 -0.000000 -0.000000
-0.939784 0.714188 1.449425 -1.000000 0.000000 -0.000000
-0.939784 0.714189 0.550576 -1.000000 0.000000 -0.000000
-0.939784 0.428474 0.550576 -1.000000 0.000000 -0.000000
-0.939784 0.428474 1.449425 -1.000000 0.000000 -0.000000
4 0 1 2 3
4 4 5 6 7
4 8 9 10 11
4 12 13 14 15
4 16 17 18 19
4 20 21 22 23
4 24 25 26 27
4 28 29 30 31
4 32 33 34 35
4 36 37 38 39
4 40 41 42 43
4 44 45 46 47
