# Blender v2.60 (sub 0) OBJ File: 'toitSimple.blend'
# www.blender.org
mtllib toitSimple.mtl
o Cube.003
v 0.785713 1.101151 5.169384
v 0.785713 1.101151 -5.168313
v 0.785713 2.898849 5.169384
v 0.785713 2.898849 -5.168312
v -0.785713 1.101151 5.169384
v -0.785713 1.101151 -5.168313
v -0.785713 2.898849 5.169384
v -0.785713 2.898849 -5.168312
v 2.357141 1.101151 5.169384
v 2.357141 1.101151 -5.168313
v -2.357141 1.101151 5.169384
v -2.357141 1.101151 -5.168313
v 2.357141 2.898849 5.169384
v 2.357141 2.898849 -5.168312
v -2.357141 2.898849 5.169384
v -2.357141 2.898849 -5.168312
v 3.928568 1.101151 5.169384
v 3.928568 1.101151 -5.168313
v -3.928568 1.101151 5.169384
v -3.928568 1.101151 -5.168313
v 3.928569 2.898849 5.169384
v 3.928569 2.898849 -5.168312
v -3.928569 2.898849 5.169384
v -3.928569 2.898849 -5.168312
v 5.168808 1.101151 2.357679
v 5.168808 1.101151 -2.356607
v -5.168808 1.101151 2.357679
v -5.168808 1.101151 -2.356607
v 5.168808 2.898849 2.357679
v 5.168808 2.898849 -2.356607
v -5.168808 2.898849 2.357679
v -5.168808 2.898849 -2.356607
v 5.168808 1.101151 3.929107
v 5.168808 1.101151 -3.928035
v -5.168808 1.101151 3.929107
v -5.168808 1.101151 -3.928035
v 5.168808 2.898849 3.929106
v 5.168808 2.898849 -3.928035
v -5.168808 2.898849 3.929106
v -5.168808 2.898849 -3.928035
v 5.168808 1.101151 0.786251
v 5.168808 1.101151 -0.785179
v -5.168808 1.101151 0.786251
v -5.168808 1.101151 -0.785179
v 5.168808 2.898849 0.786251
v 5.168808 2.898849 -0.785179
v -5.168808 2.898849 0.786251
v -5.168808 2.898849 -0.785179
vn 0.000000 0.000001 1.000000
vn 0.000000 0.000001 -1.000000
vn 1.000000 -0.000000 0.000000
vn -1.000000 -0.000000 0.000000
usemtl Fenetre
s off
f 1//1 3//1 7//1 5//1
f 8//2 4//2 2//2 6//2
f 17//1 21//1 13//1 9//1
f 14//2 22//2 18//2 10//2
f 15//1 23//1 19//1 11//1
f 20//2 24//2 16//2 12//2
f 41//3 42//3 46//3 45//3
f 48//4 44//4 43//4 47//4
f 37//3 33//3 25//3 29//3
f 26//3 34//3 38//3 30//3
f 27//4 35//4 39//4 31//4
f 40//4 36//4 28//4 32//4
o Cube.002
v -5.499996 0.000000 -5.500000
v -5.499996 0.000000 5.500000
v 5.499996 0.000000 -5.500000
v 5.499996 0.000000 5.500000
v -5.499997 4.000000 -5.499998
v -5.499997 4.000000 5.499998
v 5.499997 4.000000 -5.499998
v 5.499997 4.000000 5.499998
v -0.785713 0.000000 -5.499999
v -0.785713 0.000000 5.499999
v 0.785713 0.000000 -5.499999
v 0.785713 0.000000 5.499999
v -2.357141 0.000000 -5.499999
v -2.357141 0.000000 5.499999
v 2.357141 0.000000 -5.499999
v 2.357141 0.000000 5.499999
v -3.928568 0.000000 -5.499999
v -3.928568 0.000000 5.499999
v 3.928568 0.000000 -5.499999
v 3.928568 0.000000 5.499999
v -0.785713 4.000000 -5.499996
v -0.785713 4.000000 5.499996
v 0.785713 4.000000 -5.499996
v 0.785713 4.000000 5.499996
v -2.357141 4.000000 -5.499997
v -2.357141 4.000000 5.499997
v 2.357141 4.000000 -5.499997
v 2.357141 4.000000 5.499997
v -3.928569 4.000000 -5.499997
v -3.928569 4.000000 5.499997
v 3.928569 4.000000 -5.499997
v 3.928569 4.000000 5.499997
v -5.499997 0.000000 -0.785716
v -5.499997 0.000000 0.785716
v 5.499997 0.000000 -0.785716
v 5.499997 0.000000 0.785716
v -5.499996 0.000000 -2.357144
v -5.499996 0.000000 2.357144
v 5.499996 0.000000 -2.357144
v 5.499996 0.000000 2.357144
v -5.499996 0.000000 -3.928572
v -5.499996 0.000000 3.928572
v 5.499996 0.000000 -3.928572
v 5.499996 0.000000 3.928572
v -5.499998 4.000000 -0.785715
v -5.499998 4.000000 0.785715
v 5.499998 4.000000 -0.785715
v 5.499998 4.000000 0.785715
v -5.499998 4.000000 -2.357143
v -5.499998 4.000000 2.357143
v 5.499998 4.000000 -2.357143
v 5.499998 4.000000 2.357143
v -5.499998 4.000000 -3.928570
v -5.499998 4.000000 3.928570
v 5.499998 4.000000 -3.928570
v 5.499998 4.000000 3.928570
v -0.785715 4.000000 -0.785714
v -0.785715 4.000000 0.785714
v 0.785715 4.000000 -0.785714
v 0.785715 4.000000 0.785714
v -0.785714 4.000000 -2.357141
v -0.785714 4.000000 2.357141
v 0.785714 4.000000 -2.357141
v 0.785714 4.000000 2.357141
v -0.785713 4.000000 -3.928569
v -0.785713 4.000000 3.928569
v 0.785713 4.000000 -3.928569
v 0.785713 4.000000 3.928569
v -2.357143 4.000000 -0.785714
v -2.357143 4.000000 0.785714
v 2.357143 4.000000 -0.785714
v 2.357143 4.000000 0.785714
v -2.357142 4.000000 -2.357142
v -2.357142 4.000000 2.357142
v 2.357142 4.000000 -2.357142
v 2.357142 4.000000 2.357142
v -2.357142 4.000000 -3.928569
v -2.357142 4.000000 3.928569
v 2.357142 4.000000 -3.928569
v 2.357142 4.000000 3.928569
v -3.928570 4.000000 -0.785715
v -3.928570 4.000000 0.785715
v 3.928570 4.000000 -0.785715
v 3.928570 4.000000 0.785715
v -3.928570 4.000000 -2.357143
v -3.928570 4.000000 2.357143
v 3.928570 4.000000 -2.357143
v 3.928570 4.000000 2.357143
v -3.928570 4.000000 -3.928570
v -3.928570 4.000000 3.928570
v 3.928570 4.000000 -3.928570
v 3.928570 4.000000 3.928570
v -5.499996 1.101151 -5.499999
v -5.499996 1.101151 5.499999
v 5.499996 1.101151 -5.499999
v 5.499996 1.101151 5.499999
v -5.499997 2.898849 -5.499998
v -5.499997 2.898849 5.499998
v 5.499997 2.898849 -5.499998
v 5.499997 2.898849 5.499998
v -0.785713 1.101151 -5.499998
v -0.785713 1.101151 5.499998
v 0.785713 1.101151 -5.499998
v 0.785713 1.101151 5.499998
v -0.785713 2.898849 -5.499997
v -0.785713 2.898849 5.499997
v 0.785713 2.898849 -5.499997
v 0.785713 2.898849 5.499997
v -2.357141 1.101151 -5.499998
v -2.357141 1.101151 5.499998
v 2.357141 1.101151 -5.499998
v 2.357141 1.101151 5.499998
v -2.357141 2.898849 -5.499997
v -2.357141 2.898849 5.499997
v 2.357141 2.898849 -5.499997
v 2.357141 2.898849 5.499997
v -3.928568 1.101151 -5.499998
v -3.928568 1.101151 5.499998
v 3.928568 1.101151 -5.499998
v 3.928568 1.101151 5.499998
v -3.928569 2.898849 -5.499998
v -3.928569 2.898849 5.499998
v 3.928569 2.898849 -5.499998
v 3.928569 2.898849 5.499998
v -5.499997 1.101151 -0.785716
v -5.499997 1.101151 0.785716
v 5.499997 1.101151 -0.785716
v 5.499997 1.101151 0.785716
v -5.499998 2.898849 -0.785715
v -5.499998 2.898849 0.785715
v 5.499998 2.898849 -0.785715
v 5.499998 2.898849 0.785715
v -5.499997 1.101151 -2.357143
v -5.499997 1.101151 2.357143
v 5.499997 1.101151 -2.357143
v 5.499997 1.101151 2.357143
v -5.499997 2.898849 -2.357143
v -5.499997 2.898849 2.357143
v 5.499997 2.898849 -2.357143
v 5.499997 2.898849 2.357143
v -5.499997 1.101151 -3.928571
v -5.499997 1.101151 3.928571
v 5.499997 1.101151 -3.928571
v 5.499997 1.101151 3.928571
v -5.499997 2.898849 -3.928571
v -5.499997 2.898849 3.928571
v 5.499997 2.898849 -3.928571
v 5.499997 2.898849 3.928571
v -5.168808 2.898849 -0.785715
v -5.168808 2.898849 0.785715
v 5.168808 2.898849 -0.785715
v 5.168808 2.898849 0.785715
v -5.168808 1.101151 -0.785715
v -5.168808 1.101151 0.785715
v 5.168808 1.101151 -0.785715
v 5.168808 1.101151 0.785715
v -5.168808 2.898849 -3.928571
v -5.168808 2.898849 3.928571
v 5.168808 2.898849 -3.928571
v 5.168808 2.898849 3.928571
v -5.168808 1.101151 -3.928571
v -5.168808 1.101151 3.928571
v 5.168808 1.101151 -3.928571
v 5.168808 1.101151 3.928571
v -5.168808 2.898849 -2.357143
v -5.168808 2.898849 2.357143
v 5.168808 2.898849 -2.357143
v 5.168808 2.898849 2.357143
v -5.168808 1.101151 -2.357143
v -5.168808 1.101151 2.357143
v 5.168808 1.101151 -2.357143
v 5.168808 1.101151 2.357143
v -3.928569 2.898849 -5.168848
v -3.928569 2.898849 5.168848
v 3.928569 2.898849 -5.168848
v 3.928569 2.898849 5.168848
v -3.928568 1.101151 -5.168849
v -3.928568 1.101151 5.168849
v 3.928568 1.101151 -5.168849
v 3.928568 1.101151 5.168849
v -2.357141 2.898849 -5.168848
v -2.357141 2.898849 5.168848
v 2.357141 2.898849 -5.168848
v 2.357141 2.898849 5.168848
v -2.357141 1.101151 -5.168849
v -2.357141 1.101151 5.168849
v 2.357141 1.101151 -5.168849
v 2.357141 1.101151 5.168849
v -0.785713 2.898849 -5.168848
v -0.785713 2.898849 5.168848
v -0.785713 1.101151 -5.168849
v -0.785713 1.101151 5.168849
v 0.785713 2.898849 -5.168848
v 0.785713 2.898849 5.168848
v 0.785713 1.101151 -5.168849
v 0.785713 1.101151 5.168849
vn 0.000000 1.000000 0.000000
vn 0.000000 0.000000 -1.000000
vn 0.000000 0.000000 1.000000
vn 0.000001 -1.000000 0.000000
vn -0.000001 -1.000000 0.000000
vn 0.000000 -0.000001 1.000000
vn 0.000000 -0.000001 -1.000000
vn 0.000000 -1.000000 -0.000001
vn 0.000000 -1.000000 0.000001
usemtl Material
s off
f 73//5 125//5 113//5 69//5
f 114//5 126//5 74//5 70//5
f 115//5 127//5 75//5 71//5
f 76//5 128//5 116//5 72//5
f 125//5 121//5 109//5 113//5
f 110//5 122//5 126//5 114//5
f 111//5 123//5 127//5 115//5
f 128//5 124//5 112//5 116//5
f 121//5 117//5 105//5 109//5
f 106//5 118//5 122//5 110//5
f 107//5 119//5 123//5 111//5
f 124//5 120//5 108//5 112//5
f 77//5 137//5 125//5 73//5
f 126//5 138//5 78//5 74//5
f 127//5 139//5 79//5 75//5
f 80//5 140//5 128//5 76//5
f 137//5 133//5 121//5 125//5
f 122//5 134//5 138//5 126//5
f 123//5 135//5 139//5 127//5
f 140//5 136//5 124//5 128//5
f 133//5 129//5 117//5 121//5
f 118//5 130//5 134//5 122//5
f 119//5 131//5 135//5 123//5
f 136//5 132//5 120//5 124//5
f 53//5 101//5 137//5 77//5
f 138//5 102//5 54//5 78//5
f 139//5 103//5 55//5 79//5
f 56//5 104//5 140//5 80//5
f 101//5 97//5 133//5 137//5
f 134//5 98//5 102//5 138//5
f 135//5 99//5 103//5 139//5
f 104//5 100//5 136//5 140//5
f 97//5 93//5 129//5 133//5
f 130//5 94//5 98//5 134//5
f 131//5 95//5 99//5 135//5
f 100//5 96//5 132//5 136//5
f 113//5 115//5 71//5 69//5
f 72//5 116//5 114//5 70//5
f 109//5 111//5 115//5 113//5
f 116//5 112//5 110//5 114//5
f 105//5 107//5 111//5 109//5
f 112//5 108//5 106//5 110//5
f 61//2 157//2 149//2 57//2
f 150//1 158//1 62//1 58//1
f 151//2 159//2 63//2 59//2
f 64//1 160//1 152//1 60//1
f 157//2 161//2 153//2 149//2
f 154//1 162//1 158//1 150//1
f 155//2 163//2 159//2 151//2
f 160//1 164//1 156//1 152//1
f 161//2 73//2 69//2 153//2
f 70//1 74//1 162//1 154//1
f 71//2 75//2 163//2 155//2
f 164//1 76//1 72//1 156//1
f 65//2 165//2 157//2 61//2
f 158//1 166//1 66//1 62//1
f 159//2 167//2 67//2 63//2
f 68//1 168//1 160//1 64//1
f 169//6 77//6 73//6 161//6
f 74//7 78//7 170//7 162//7
f 75//6 79//6 171//6 163//6
f 172//7 80//7 76//7 164//7
f 49//2 141//2 165//2 65//2
f 166//1 142//1 50//1 66//1
f 167//2 143//2 51//2 67//2
f 52//1 144//1 168//1 68//1
f 141//6 145//6 169//6 165//6
f 170//7 146//7 142//7 166//7
f 171//6 147//6 143//6 167//6
f 144//7 148//7 172//7 168//7
f 145//6 53//6 77//6 169//6
f 78//7 54//7 146//7 170//7
f 79//6 55//6 147//6 171//6
f 148//7 56//7 80//7 172//7
f 149//2 151//2 59//2 57//2
f 60//1 152//1 150//1 58//1
f 69//2 71//2 155//2 153//2
f 156//1 72//1 70//1 154//1
f 97//4 185//4 177//4 93//4
f 178//4 186//4 98//4 94//4
f 179//3 187//3 99//3 95//3
f 100//3 188//3 180//3 96//3
f 185//4 181//4 173//4 177//4
f 174//4 182//4 186//4 178//4
f 175//3 183//3 187//3 179//3
f 188//3 184//3 176//3 180//3
f 181//4 85//4 81//4 173//4
f 82//4 86//4 182//4 174//4
f 83//3 87//3 183//3 175//3
f 184//3 88//3 84//3 176//3
f 101//4 193//4 185//4 97//4
f 186//4 194//4 102//4 98//4
f 187//3 195//3 103//3 99//3
f 104//3 196//3 188//3 100//3
f 189//4 89//4 85//4 181//4
f 86//4 90//4 190//4 182//4
f 87//3 91//3 191//3 183//3
f 192//3 92//3 88//3 184//3
f 53//4 145//4 193//4 101//4
f 194//4 146//4 54//4 102//4
f 195//3 147//3 55//3 103//3
f 56//3 148//3 196//3 104//3
f 145//4 141//4 189//4 193//4
f 190//4 142//4 146//4 194//4
f 191//3 143//3 147//3 195//3
f 148//3 144//3 192//3 196//3
f 141//4 49//4 89//4 189//4
f 90//4 50//4 142//4 190//4
f 91//3 51//3 143//3 191//3
f 144//3 52//3 92//3 192//3
f 177//7 173//7 201//7 197//7
f 202//6 174//6 178//6 198//6
f 203//7 175//7 179//7 199//7
f 180//6 176//6 204//6 200//6
f 189//5 181//5 217//5 209//5
f 218//5 182//5 190//5 210//5
f 219//5 183//5 191//5 211//5
f 192//5 184//5 220//5 212//5
f 185//8 193//8 205//8 213//8
f 206//8 194//8 186//8 214//8
f 207//9 195//9 187//9 215//9
f 188//9 196//9 208//9 216//9
f 193//10 189//10 209//10 205//10
f 210//11 190//11 194//11 206//11
f 211//10 191//10 195//10 207//10
f 196//11 192//11 212//11 208//11
f 181//6 185//6 213//6 217//6
f 214//7 186//7 182//7 218//7
f 215//6 187//6 183//6 219//6
f 184//7 188//7 216//7 220//7
f 105//5 117//5 118//5 106//5
f 120//5 119//5 107//5 108//5
f 117//5 129//5 130//5 118//5
f 132//5 131//5 119//5 120//5
f 129//5 93//5 94//5 130//5
f 96//5 95//5 131//5 132//5
f 108//5 107//5 105//5 106//5
f 93//4 177//4 178//4 94//4
f 180//3 179//3 95//3 96//3
f 173//4 81//4 82//4 174//4
f 84//3 83//3 175//3 176//3
f 201//5 173//5 174//5 202//5
f 176//5 175//5 203//5 204//5
f 198//8 178//8 177//8 197//8
f 179//9 180//9 200//9 199//9
f 169//12 161//12 229//12 221//12
f 230//13 162//13 170//13 222//13
f 231//12 163//12 171//12 223//12
f 172//13 164//13 232//13 224//13
f 157//5 165//5 225//5 233//5
f 226//5 166//5 158//5 234//5
f 227//5 167//5 159//5 235//5
f 160//5 168//5 228//5 236//5
f 165//3 169//3 221//3 225//3
f 222//3 170//3 166//3 226//3
f 223//4 171//4 167//4 227//4
f 168//4 172//4 224//4 228//4
f 161//4 157//4 233//4 229//4
f 234//4 158//4 162//4 230//4
f 235//3 159//3 163//3 231//3
f 164//3 160//3 236//3 232//3
f 237//12 153//12 155//12 241//12
f 156//13 154//13 238//13 242//13
f 243//5 151//5 149//5 239//5
f 150//5 152//5 244//5 240//5
f 149//3 153//3 237//3 239//3
f 238//3 154//3 150//3 240//3
f 241//4 155//4 151//4 243//4
f 152//4 156//4 242//4 244//4
